Coordinates
version=1
nRows=6
nColumns=63
inDegrees=yes

Units are S.I. units (second, meters, Newtons, ...)
If the header above contains a line with 'inDegrees', this indicates whether rotational values are in degrees (yes) or radians (no).

endheader
time	pelvis_tilt	pelvis_list	pelvis_rotation	pelvis_tx	pelvis_ty	pelvis_tz	hip_flexion_r	hip_adduction_r	hip_rotation_r	knee_angle_r	knee_angle_r_beta	ankle_angle_r	subtalar_angle_r	mtp_angle_r	hip_flexion_l	hip_adduction_l	hip_rotation_l	knee_angle_l	knee_angle_l_beta	ankle_angle_l	subtalar_angle_l	mtp_angle_l	L5_S1_Flex_Ext	L5_S1_Lat_Bending	L5_S1_axial_rotation	L4_L5_Flex_Ext	L4_L5_Lat_Bending	L4_L5_axial_rotation	L3_L4_Flex_Ext	L3_L4_Lat_Bending	L3_L4_axial_rotation	L2_L3_Flex_Ext	L2_L3_Lat_Bending	L2_L3_axial_rotation	L1_L2_Flex_Ext	L1_L2_Lat_Bending	L1_L2_axial_rotation	L1_T12_Flex_Ext	L1_T12_Lat_Bending	L1_T12_axial_rotation	Abs_r3	Abs_r2	Abs_r1	Abs_t1	Abs_t2	neck_flexion	neck_bending	neck_rotation	arm_flex_r	arm_add_r	arm_rot_r	elbow_flex_r	pro_sup_r	wrist_flex_r	wrist_dev_r	arm_flex_l	arm_add_l	arm_rot_l	elbow_flex_l	pro_sup_l	wrist_flex_l	wrist_dev_l
      2.15254237	      3.39483981	     -4.01340724	    114.00702774	      0.02875289	      0.94300810	      0.42595356	     -1.96281593	      2.98261565	    -22.75406804	      4.23456633	      0.07390712	     16.01559969	     -4.97298885	      0.00000000	      2.27648746	     -2.86399796	     23.87944251	      2.67345158	      0.04666053	     20.38107233	    -11.88130963	      0.00000000	      0.34079492	      0.18307185	     -2.72251368	      0.63289025	      0.24348556	     -2.89267079	      0.55989198	      0.44512090	     -2.89267079	      0.38949452	      0.44512090	     -2.38219947	      0.31646217	      0.37332012	     -2.21204237	      0.19473022	      0.28357830	     -2.04188526	      2.43426407	      2.07094540	    -15.14180434	      0.00000000	      0.00000000	     28.01660420	     -0.13919210	     -4.87249684	     24.55096473	     -6.26008160	     82.22009892	     41.05897078	     85.49982701	     25.66843252	     24.19318011	     18.87017546	     -7.90290052	     61.14576757	     44.66512388	     65.60179343	     27.51104557	     23.73900816
      2.16949153	      3.36322072	     -3.78319012	    114.38126718	      0.02766926	      0.94344163	      0.42480302	     -2.47263746	      3.12674303	    -22.47096913	      3.95706361	      0.06906379	     16.16243703	     -5.42181791	      0.00000000	      1.95069387	     -2.94207361	     23.99501572	      2.69437250	      0.04702567	     20.05898755	    -11.50147144	      0.00000000	      0.32788729	      0.17432755	     -2.75043511	      0.60891949	      0.23185565	     -2.92233730	      0.53868603	      0.42386001	     -2.92233730	      0.37474238	      0.42386001	     -2.40663072	      0.30447614	      0.35548875	     -2.23472853	      0.18735480	      0.27003338	     -2.06282633	      2.34206613	      1.97202814	    -15.29709495	      0.00000000	      0.00000000	     28.07703540	     -0.01958765	     -4.95200599	     24.10793788	     -6.12537592	     81.67756321	     41.10212732	     86.65383726	     24.81295978	     25.78331841	     19.31544261	     -7.86947522	     62.80769743	     44.40523615	     67.91393523	     27.08920826	     21.70858643
      2.18644068	      3.35246565	     -3.66280073	    114.56425631	      0.02692937	      0.94369889	      0.42359212	     -2.80877722	      3.21895564	    -22.02760196	      3.76021914	      0.06562820	     16.37904685	     -5.78119685	      0.00000000	      1.67184922	     -3.01733221	     24.42669973	      2.57552319	      0.04495136	     19.49794170	    -11.80197580	      0.00000000	      0.32782632	      0.16257227	     -2.69251560	      0.60880626	      0.21622112	     -2.86079783	      0.53858586	      0.39527821	     -2.86079783	      0.37467270	      0.39527821	     -2.35595115	      0.30441952	      0.33151737	     -2.18766893	      0.18731996	      0.25182444	     -2.01938670	      2.34163063	      1.83905001	    -14.97496403	      0.00000000	      0.00000000	     28.11118261	     -0.01151689	     -5.42314640	     22.91646668	     -6.09523016	     78.50175797	     40.89151124	     87.29757883	     24.95601433	     27.76433746	     20.02270157	     -7.71742802	     64.97082012	     43.94796797	     72.95713432	     27.31831496	     17.65298341
      2.20338983	      3.32205744	     -3.47810411	    114.59142854	      0.02612574	      0.94395905	      0.42230031	     -3.21584953	      3.31951107	    -20.59004891	      3.52479781	      0.06151933	     16.30168592	     -7.18931983	      0.00000000	      1.24750267	     -3.09081201	     25.75259128	      2.32159232	      0.04051943	     18.78716553	    -13.43784628	      0.00000000	      0.31719414	      0.15922518	     -2.66267155	      0.58906123	      0.21176948	     -2.82908852	      0.52111825	      0.38714009	     -2.82908852	      0.36252118	      0.38714009	     -2.32983761	      0.29454648	      0.32469198	     -2.16342063	      0.18124473	      0.24663980	     -1.99700366	      2.26568601	      1.80118703	    -14.80898035	      0.00000000	      0.00000000	     28.14519031	      0.13669859	     -5.40694107	     22.23545217	     -6.14252316	     76.75241548	     41.02605555	     87.18997543	     23.95466685	     29.50131985	     20.55480579	     -7.67153665	     67.00678688	     43.72662003	     77.50075655	     26.51384000	     13.68791580
      2.22033898	      3.34283696	     -3.39518014	    114.54946119	      0.02552531	      0.94413451	      0.42123222	     -3.40327791	      3.35943607	    -19.93884545	      3.44747975	      0.06016987	     16.56279770	     -7.40520844	      0.00000000	      1.04482425	     -3.15894575	     25.59035406	      2.16352214	      0.03776058	     18.92710333	    -13.04691764	      0.00000000	      0.32022829	      0.16082992	     -2.61125531	      0.59469596	      0.21390380	     -2.77445876	      0.52610306	      0.39104187	     -2.77445876	      0.36598892	      0.39104187	     -2.28484839	      0.29736399	      0.32796438	     -2.12164494	      0.18297845	      0.24912555	     -1.95844148	      2.28735867	      1.81934025	    -14.52301864	      0.00000000	      0.00000000	     28.16584793	      0.13572617	     -5.48377365	     21.27342612	     -6.21662803	     73.92896139	     41.08292854	     87.37089947	     23.27486357	     30.60789144	     21.04497636	     -7.61302332	     69.31998784	     43.62994318	     80.10440506	     24.63116055	     10.90269367
      2.23728814	      3.40071043	     -3.29345522	    114.57526454	      0.02479827	      0.94429280	      0.42055497	     -3.56723676	      3.43667832	    -19.13619031	      3.36626986	      0.05875249	     16.76786186	     -7.94184242	      0.00000000	      0.90179884	     -3.24906070	     25.73823902	      2.00984984	      0.03507850	     19.32487813	    -12.92772866	      0.00000000	      0.31983827	      0.17665642	     -2.62454325	      0.59397166	      0.23495304	     -2.78857720	      0.52546230	      0.42952242	     -2.78857720	      0.36554316	      0.42952242	     -2.29647534	      0.29700182	      0.36023777	     -2.13244139	      0.18275559	      0.27364080	     -1.96840743	      2.28457281	      1.99837277	    -14.59692217	      0.00000000	      0.00000000	     28.17489884	      0.18144910	     -5.04168585	     21.10545496	     -6.20643514	     73.28394438	     41.09411256	     87.37294762	     22.56417460	     31.09216466	     21.34742244	     -7.60856043	     71.32645240	     43.63111515	     81.21785535	     22.35860132	      8.98624276
